<?xml version="1.0" encoding="UTF-8"?>
<svg width="32" height="32" viewBox="0 0 32 32" fill="none" xmlns="http://www.w3.org/2000/svg">
  <circle cx="16" cy="16" r="16" fill="#F7931A"/>
  <path d="M21.5 13.5C21.5 9.5 18.5 8 15 8H8V24H15C18.5 24 21.5 22.5 21.5 18.5C21.5 15.5 20 14 17.5 13.5C20 13 21.5 11.5 21.5 13.5Z" fill="white"/>
  <path d="M13 11.5H15.5C17.5 11.5 18.5 12.5 18.5 14C18.5 15.5 17.5 16.5 15.5 16.5H13V11.5Z" fill="white"/>
  <path d="M13 17.5H16C18 17.5 19 18.5 19 20C19 21.5 18 22.5 16 22.5H13V17.5Z" fill="white"/>
</svg> 